<?xml version="1.0" encoding="UTF-8" standalone="no"?>
<!-- Created with Inkscape (http://www.inkscape.org/) -->

<svg
   width="210mm"
   height="297mm"
   viewBox="0 0 210 297"
   version="1.1"
   id="svg5"
   inkscape:version="1.1.2 (0a00cf5339, 2022-02-04)"
   sodipodi:docname="fantasmas.svg"
   xmlns:inkscape="http://www.inkscape.org/namespaces/inkscape"
   xmlns:sodipodi="http://sodipodi.sourceforge.net/DTD/sodipodi-0.dtd"
   xmlns="http://www.w3.org/2000/svg"
   xmlns:svg="http://www.w3.org/2000/svg">
  <sodipodi:namedview
     id="namedview7"
     pagecolor="#ffffff"
     bordercolor="#666666"
     borderopacity="1.0"
     inkscape:pageshadow="2"
     inkscape:pageopacity="0.0"
     inkscape:pagecheckerboard="0"
     inkscape:document-units="mm"
     showgrid="false"
     inkscape:zoom="4.2179991"
     inkscape:cx="103.01093"
     inkscape:cy="70.88669"
     inkscape:window-width="1918"
     inkscape:window-height="1059"
     inkscape:window-x="0"
     inkscape:window-y="0"
     inkscape:window-maximized="1"
     inkscape:current-layer="layer1"
     showguides="true"
     inkscape:guide-bbox="true">
    <sodipodi:guide
       position="7.9375027,273.93549"
       orientation="-1,0"
       id="guide1732"
       inkscape:label=""
       inkscape:locked="false"
       inkscape:color="rgb(0,0,255)" />
    <sodipodi:guide
       position="10.555748,296.91178"
       orientation="0,1"
       id="guide1734"
       inkscape:label=""
       inkscape:locked="false"
       inkscape:color="rgb(0,0,255)" />
    <sodipodi:guide
       position="0.022,297.77628"
       orientation="-1,0"
       id="guide1843"
       inkscape:label=""
       inkscape:locked="false"
       inkscape:color="rgb(0,0,255)" />
    <sodipodi:guide
       position="9.0477048,289.0625"
       orientation="0,1"
       id="guide1845"
       inkscape:label=""
       inkscape:locked="false"
       inkscape:color="rgb(0,0,255)" />
  </sodipodi:namedview>
  <defs
     id="defs2" />
  <g
     inkscape:label="Capa 1"
     inkscape:groupmode="layer"
     id="layer1">
    <path
       style="fill:#ff00ff;stroke:#000000;stroke-width:0.0711335px;stroke-linecap:butt;stroke-linejoin:miter;stroke-opacity:1"
       d="m 23.458986,7.5048671 c 1.035047,-9.1885483 -6.957516,-9.3221609 -6.457959,-0.1447965 0.201216,1.2641458 2.026679,-1.1112398 2.68592,-0.5404417 0.29722,0.2573466 0.749947,0.9346593 1.274572,0.8886762 0.589711,-0.051688 1.099894,-0.9640929 1.657494,-0.8513453 0.7054,0.1426335 0.119079,1.2805922 0.839973,0.6479073 z"
       id="path106"
       sodipodi:nodetypes="ccsssc" />
    <path
       style="fill:#ff00ff;stroke:#000000;stroke-width:0.0711335px;stroke-linecap:butt;stroke-linejoin:miter;stroke-opacity:1"
       d="M 7.408336,7.408334 C 8.4433834,-1.7802143 0.45082049,-1.9138268 0.95037804,7.2635376 1.1515936,8.5276833 1.4921983,6.2005642 2.1514385,6.7713623 2.4486593,7.0287089 2.9013855,7.7060215 3.426011,7.6600384 4.0157225,7.6083504 4.5259053,6.6959455 5.0835046,6.8086932 5.7889053,6.9513266 6.687443,8.0410189 7.408336,7.408334 Z"
       id="path575"
       sodipodi:nodetypes="ccsssc" />
    <path
       style="fill:#ff00ff;stroke:#000000;stroke-width:0.0711335px;stroke-linecap:butt;stroke-linejoin:miter;stroke-opacity:1"
       d="m 23.458986,16.627096 c 1.035047,-9.1885484 -6.957516,-9.322161 -6.457959,-0.144797 0.201216,1.264146 2.026679,-1.111239 2.68592,-0.540441 0.29722,0.257346 0.749947,0.934659 1.274572,0.888676 0.589711,-0.05169 1.099894,-0.964093 1.657494,-0.851345 0.7054,0.142633 0.119079,1.280592 0.839973,0.647907 z"
       id="path954"
       sodipodi:nodetypes="ccsssc" />
    <g
       id="g960"
       transform="matrix(0.26569313,0,0,0.27204751,11.179559,-5.8678552)">
      <ellipse
         style="fill:#ffffff;stroke-width:0.264583"
         id="ellipse956"
         cx="30.404678"
         cy="66.243683"
         rx="2.7721348"
         ry="2.9495523" />
      <ellipse
         style="fill:#000000;fill-rule:evenodd;stroke-width:0.264583"
         id="ellipse958"
         cx="30.27162"
         cy="67.929146"
         rx="1.1310308"
         ry="1.1753856" />
    </g>
    <g
       id="g966"
       transform="matrix(0.26569313,0,0,0.27204751,13.306856,-5.8678552)">
      <ellipse
         style="fill:#ffffff;stroke-width:0.264583"
         id="ellipse962"
         cx="30.404678"
         cy="66.243683"
         rx="2.7721348"
         ry="2.9495523" />
      <ellipse
         style="fill:#000000;fill-rule:evenodd;stroke-width:0.264583"
         id="ellipse964"
         cx="30.27162"
         cy="67.929146"
         rx="1.1310308"
         ry="1.1753856" />
    </g>
    <ellipse
       style="fill:#ffffff;stroke-width:0.0711335"
       id="ellipse968"
       cx="19.257874"
       cy="12.153574"
       rx="0.73653716"
       ry="0.80241835" />
    <ellipse
       style="fill:#ffffff;stroke-width:0.0711335"
       id="ellipse974"
       cx="21.38517"
       cy="12.153574"
       rx="0.73653716"
       ry="0.80241835" />
    <path
       style="fill:#ff00ff;stroke:#000000;stroke-width:0.0711335px;stroke-linecap:butt;stroke-linejoin:miter;stroke-opacity:1"
       d="M 7.408336,16.530563 C 8.4433834,7.3420146 0.45082049,7.208402 0.95037804,16.385766 1.1515936,17.649912 1.4921983,15.322793 2.1514385,15.893591 c 0.2972208,0.257347 0.749947,0.934659 1.2745725,0.888676 0.5897115,-0.05169 1.0998943,-0.964093 1.6574936,-0.851345 0.7054007,0.142633 1.6039384,1.232326 2.3248314,0.599641 z"
       id="path980"
       sodipodi:nodetypes="ccsssc" />
    <g
       id="g986"
       transform="matrix(0.26569313,0,0,0.27204751,-4.87109,-5.9643883)">
      <ellipse
         style="fill:#ffffff;stroke-width:0.264583"
         id="ellipse982"
         cx="30.404678"
         cy="66.243683"
         rx="2.7721348"
         ry="2.9495523" />
      <ellipse
         style="fill:#000000;fill-rule:evenodd;stroke-width:0.264583"
         id="ellipse984"
         cx="30.27162"
         cy="67.929146"
         rx="1.1310308"
         ry="1.1753856" />
    </g>
    <g
       id="g992"
       transform="matrix(0.26569313,0,0,0.27204751,-2.7437932,-5.9643883)">
      <ellipse
         style="fill:#ffffff;stroke-width:0.264583"
         id="ellipse988"
         cx="30.404678"
         cy="66.243683"
         rx="2.7721348"
         ry="2.9495523" />
      <ellipse
         style="fill:#000000;fill-rule:evenodd;stroke-width:0.264583"
         id="ellipse990"
         cx="30.27162"
         cy="67.929146"
         rx="1.1310308"
         ry="1.1753856" />
    </g>
    <ellipse
       style="fill:#ffffff;stroke-width:0.0711335"
       id="ellipse994"
       cx="3.2072241"
       cy="12.05704"
       rx="0.73653716"
       ry="0.80241835" />
    <ellipse
       style="fill:#ffffff;stroke-width:0.0711335"
       id="ellipse1000"
       cx="5.3345208"
       cy="12.05704"
       rx="0.73653716"
       ry="0.80241835" />
    <path
       style="fill:#ff00ff;stroke:#000000;stroke-width:0.0711335px;stroke-linecap:butt;stroke-linejoin:miter;stroke-opacity:1"
       d="m 23.364707,26.183714 c 0.520977,-4.624922 -0.34953,-6.762743 -2.168696,-6.766943 -1.795056,-0.0041 -4.537374,2.064074 -4.289262,6.622146 0.201216,1.264148 2.026679,-1.111238 2.685919,-0.540441 0.297221,0.257349 0.749947,0.93466 1.274573,0.888676 0.589711,-0.05169 1.099894,-0.964093 1.657493,-0.851343 0.705401,0.142632 0.11908,1.28059 0.839973,0.647905 z"
       id="path1040"
       sodipodi:nodetypes="cscsssc" />
    <g
       id="g1046"
       transform="matrix(0.26569313,0,0,0.27204751,11.910202,3.6404967)">
      <ellipse
         style="fill:#ffffff;stroke-width:0.264583"
         id="ellipse1042"
         cx="30.404678"
         cy="66.243683"
         rx="2.7721348"
         ry="2.9495523" />
      <ellipse
         style="fill:#000000;fill-rule:evenodd;stroke-width:0.264583"
         id="ellipse1044"
         cx="30.27162"
         cy="67.929146"
         rx="1.1310308"
         ry="1.1753856" />
    </g>
    <g
       id="g1052"
       transform="matrix(0.26569313,0,0,0.27204751,14.037499,3.6404967)">
      <ellipse
         style="fill:#ffffff;stroke-width:0.264583"
         id="ellipse1048"
         cx="30.404678"
         cy="66.243683"
         rx="2.7721348"
         ry="2.9495523" />
      <ellipse
         style="fill:#000000;fill-rule:evenodd;stroke-width:0.264583"
         id="ellipse1050"
         cx="30.27162"
         cy="67.929146"
         rx="1.1310308"
         ry="1.1753856" />
    </g>
    <ellipse
       style="fill:#ffffff;stroke-width:0.0711335"
       id="ellipse1054"
       cx="19.988518"
       cy="21.661926"
       rx="0.73653716"
       ry="0.80241835" />
    <ellipse
       style="fill:#ffffff;stroke-width:0.0711335"
       id="ellipse1058"
       cx="22.115814"
       cy="21.661926"
       rx="0.73653716"
       ry="0.80241835" />
    <path
       style="fill:#ff00ff;stroke:#000000;stroke-width:0.0711335px;stroke-linecap:butt;stroke-linejoin:miter;stroke-opacity:1"
       d="M 7.3140577,26.087181 C 7.8420792,21.399715 7.010616,19.117016 5.1658094,19.176547 c -1.7714526,0.05716 -4.55442178,2.270235 -4.30970964,6.76584 0.20121554,1.264144 0.54182034,-1.062974 1.20106044,-0.492178 0.2972208,0.257349 0.7499471,0.93466 1.2745725,0.888676 0.5897115,-0.05169 1.0998944,-0.964093 1.6574936,-0.851343 0.7054007,0.142632 1.6039385,1.232324 2.3248314,0.599639 z"
       id="path1062"
       sodipodi:nodetypes="cscsssc" />
    <g
       id="g1068"
       transform="matrix(0.26569313,0,0,0.27204751,-4.1404468,3.5439636)">
      <ellipse
         style="fill:#ffffff;stroke-width:0.264583"
         id="ellipse1064"
         cx="30.404678"
         cy="66.243683"
         rx="2.7721348"
         ry="2.9495523" />
      <ellipse
         style="fill:#000000;fill-rule:evenodd;stroke-width:0.264583"
         id="ellipse1066"
         cx="30.27162"
         cy="67.929146"
         rx="1.1310308"
         ry="1.1753856" />
    </g>
    <g
       id="g1074"
       transform="matrix(0.26569313,0,0,0.27204751,-2.01315,3.5439636)">
      <ellipse
         style="fill:#ffffff;stroke-width:0.264583"
         id="ellipse1070"
         cx="30.404678"
         cy="66.243683"
         rx="2.7721348"
         ry="2.9495523" />
      <ellipse
         style="fill:#000000;fill-rule:evenodd;stroke-width:0.264583"
         id="ellipse1072"
         cx="30.27162"
         cy="67.929146"
         rx="1.1310308"
         ry="1.1753856" />
    </g>
    <ellipse
       style="fill:#ffffff;stroke-width:0.0711335"
       id="ellipse1076"
       cx="3.9378672"
       cy="21.565392"
       rx="0.73653716"
       ry="0.80241835" />
    <ellipse
       style="fill:#ffffff;stroke-width:0.0711335"
       id="ellipse1080"
       cx="6.0651636"
       cy="21.565392"
       rx="0.73653716"
       ry="0.80241835" />
    <ellipse
       style="fill:#000000;fill-rule:evenodd;stroke-width:0.107942"
       id="ellipse664"
       cx="5.3186145"
       cy="11.607897"
       rx="0.48294252"
       ry="0.45816353" />
    <ellipse
       style="fill:#000000;fill-rule:evenodd;stroke-width:0.107942"
       id="ellipse666"
       cx="3.167438"
       cy="11.607897"
       rx="0.48294252"
       ry="0.45816353" />
    <ellipse
       style="fill:#000000;fill-rule:evenodd;stroke-width:0.107942"
       id="ellipse668"
       cx="21.419174"
       cy="11.740958"
       rx="0.48294252"
       ry="0.45816353" />
    <ellipse
       style="fill:#000000;fill-rule:evenodd;stroke-width:0.107942"
       id="ellipse670"
       cx="19.267998"
       cy="11.740958"
       rx="0.48294252"
       ry="0.45816353" />
    <g
       id="g838"
       transform="matrix(0.26569313,0,0,0.27204751,11.090851,-15.049167)">
      <ellipse
         style="fill:#ffffff;stroke-width:0.264583"
         id="ellipse834"
         cx="30.404678"
         cy="66.243683"
         rx="2.7721348"
         ry="2.9495523" />
      <ellipse
         style="fill:#000000;fill-rule:evenodd;stroke-width:0.264583"
         id="ellipse836"
         cx="30.27162"
         cy="67.929146"
         rx="1.1310308"
         ry="1.1753856" />
    </g>
    <g
       id="g844"
       transform="matrix(0.26569313,0,0,0.27204751,13.218148,-15.049167)">
      <ellipse
         style="fill:#ffffff;stroke-width:0.264583"
         id="ellipse840"
         cx="30.404678"
         cy="66.243683"
         rx="2.7721348"
         ry="2.9495523" />
      <ellipse
         style="fill:#000000;fill-rule:evenodd;stroke-width:0.264583"
         id="ellipse842"
         cx="30.27162"
         cy="67.929146"
         rx="1.1310308"
         ry="1.1753856" />
    </g>
    <ellipse
       style="fill:#ffffff;stroke-width:0.0711335"
       id="ellipse846"
       cx="19.169165"
       cy="2.9722619"
       rx="0.73653716"
       ry="0.80241835" />
    <ellipse
       style="fill:#ffffff;stroke-width:0.0711335"
       id="ellipse848"
       cx="21.296461"
       cy="2.9722619"
       rx="0.73653716"
       ry="0.80241835" />
    <g
       id="g854"
       transform="matrix(0.26569313,0,0,0.27204751,-4.9597983,-15.1457)">
      <ellipse
         style="fill:#ffffff;stroke-width:0.264583"
         id="ellipse850"
         cx="30.404678"
         cy="66.243683"
         rx="2.7721348"
         ry="2.9495523" />
      <ellipse
         style="fill:#000000;fill-rule:evenodd;stroke-width:0.264583"
         id="ellipse852"
         cx="30.27162"
         cy="67.929146"
         rx="1.1310308"
         ry="1.1753856" />
    </g>
    <g
       id="g860"
       transform="matrix(0.26569313,0,0,0.27204751,-2.8325015,-15.1457)">
      <ellipse
         style="fill:#ffffff;stroke-width:0.264583"
         id="ellipse856"
         cx="30.404678"
         cy="66.243683"
         rx="2.7721348"
         ry="2.9495523" />
      <ellipse
         style="fill:#000000;fill-rule:evenodd;stroke-width:0.264583"
         id="ellipse858"
         cx="30.27162"
         cy="67.929146"
         rx="1.1310308"
         ry="1.1753856" />
    </g>
    <ellipse
       style="fill:#ffffff;stroke-width:0.0711335"
       id="ellipse862"
       cx="3.1185157"
       cy="2.8757281"
       rx="0.73653716"
       ry="0.80241835" />
    <ellipse
       style="fill:#ffffff;stroke-width:0.0711335"
       id="ellipse864"
       cx="5.2458124"
       cy="2.8757281"
       rx="0.73653716"
       ry="0.80241835" />
    <ellipse
       style="fill:#000000;fill-rule:evenodd;stroke-width:0.107942"
       id="ellipse866"
       cx="5.2612691"
       cy="3.2340131"
       rx="0.48294252"
       ry="0.45816353" />
    <ellipse
       style="fill:#000000;fill-rule:evenodd;stroke-width:0.107942"
       id="ellipse868"
       cx="3.1100926"
       cy="3.2340131"
       rx="0.48294252"
       ry="0.45816353" />
    <ellipse
       style="fill:#000000;fill-rule:evenodd;stroke-width:0.107942"
       id="ellipse870"
       cx="21.361828"
       cy="3.3670745"
       rx="0.48294252"
       ry="0.45816353" />
    <ellipse
       style="fill:#000000;fill-rule:evenodd;stroke-width:0.107942"
       id="ellipse872"
       cx="19.210651"
       cy="3.3670745"
       rx="0.48294252"
       ry="0.45816353" />
    <ellipse
       style="fill:#000000;fill-rule:evenodd;stroke-width:0.107942"
       id="ellipse954"
       cx="6.3222356"
       cy="21.581373"
       rx="0.48294252"
       ry="0.45816353" />
    <ellipse
       style="fill:#000000;fill-rule:evenodd;stroke-width:0.107942"
       id="ellipse957"
       cx="4.1710591"
       cy="21.581373"
       rx="0.48294252"
       ry="0.45816353" />
    <ellipse
       style="fill:#000000;fill-rule:evenodd;stroke-width:0.107942"
       id="ellipse959"
       cx="22.422794"
       cy="21.714434"
       rx="0.48294252"
       ry="0.45816353" />
    <ellipse
       style="fill:#000000;fill-rule:evenodd;stroke-width:0.107942"
       id="ellipse961"
       cx="20.271618"
       cy="21.714434"
       rx="0.48294252"
       ry="0.45816353" />
  </g>
</svg>
